<svg width="202" height="163" viewBox="0 0 202 163" fill="none" xmlns="http://www.w3.org/2000/svg">
<path fill-rule="evenodd" clip-rule="evenodd" d="M156.62 74.3251C156.62 108.194 129.394 135.65 95.8098 135.65C62.2255 135.65 35 108.194 35 74.3251C35 40.4562 62.2255 13 95.8098 13C129.394 13 156.62 40.4562 156.62 74.3251ZM96.4478 48.3252H74.4478V90.3252H79.4478V82.3252H91.4478V90.3252H96.4478V60.3252V56.3252V48.3252ZM100.448 60.3252V67.3252H109.448V69.3252H100.448V73.3252H109.448V75.3252H100.448V79.3252H109.448V81.3252H100.448V90.3252H113.448V60.3252H100.448ZM117.448 94.3252H122.448V90.3252H117.448V60.3252V56.3252H113.448H100.448V48.3252V44.3252H96.4478H74.4478H70.4478V48.3252V90.3252H65.4478V94.3252H70.4478H74.4478H96.4478H100.448H113.448H117.448ZM91.4478 54.3252H79.4478V58.3252H91.4478V54.3252ZM91.4478 63.3252H79.4478V68.3252H91.4478V63.3252ZM79.4478 73.3252H91.4478V77.3252H79.4478V73.3252Z" fill="#007AB9"/>
</svg>
